<?xml version="1.0" encoding="UTF-8"?>

<!DOCTYPE svg PUBLIC '-//W3C//DTD SVG 1.0//EN' 'http://www.w3.org/TR/2001/REC-SVG-20010904/DTD/svg10.dtd'>
<svg style="fill-opacity:1; color-rendering:auto; color-interpolation:auto; text-rendering:auto; stroke:black; stroke-linecap:square; stroke-miterlimit:10; shape-rendering:auto; stroke-opacity:1; fill:black; stroke-dasharray:none; font-weight:normal; stroke-width:1; font-family:&apos;Dialog&apos;; font-style:normal; stroke-linejoin:miter; font-size:12; stroke-dashoffset:0; image-rendering:auto;" xmlns="http://www.w3.org/2000/svg" width="942" xmlns:xlink="http://www.w3.org/1999/xlink" height="313">
  <!--Generated by Selena using Batik-->
  <defs id="genericDefs" />
  <g>
    <defs id="defs1">
      <clipPath clipPathUnits="userSpaceOnUse" id="clipPath1">
        <path d="M0 0 L12000 0 L12000 12000 L0 12000 L0 0 Z" />
      </clipPath>
      <clipPath clipPathUnits="userSpaceOnUse" id="clipPath2">
        <path d="M240 140 L240 200 L351 200 L351 140 Z" />
      </clipPath>
      <clipPath clipPathUnits="userSpaceOnUse" id="clipPath3">
        <path d="M0 0 L0 17 L93 17 L93 0 Z" />
      </clipPath>
      <clipPath clipPathUnits="userSpaceOnUse" id="clipPath4">
        <path d="M9 0 L9 17 L74 17 L74 0 Z" />
      </clipPath>
      <clipPath clipPathUnits="userSpaceOnUse" id="clipPath5">
        <path d="M0 0 L0 34 L16 34 L16 0 Z" />
      </clipPath>
      <clipPath clipPathUnits="userSpaceOnUse" id="clipPath6">
        <path d="M380 40 L380 100 L491 100 L491 40 Z" />
      </clipPath>
      <clipPath clipPathUnits="userSpaceOnUse" id="clipPath7">
        <path d="M30 0 L30 17 L53 17 L53 0 Z" />
      </clipPath>
      <clipPath clipPathUnits="userSpaceOnUse" id="clipPath8">
        <path d="M380 240 L380 300 L491 300 L491 240 Z" />
      </clipPath>
      <clipPath clipPathUnits="userSpaceOnUse" id="clipPath9">
        <path d="M24 0 L24 17 L58 17 L58 0 Z" />
      </clipPath>
      <clipPath clipPathUnits="userSpaceOnUse" id="clipPath10">
        <path d="M640 240 L640 300 L751 300 L751 240 Z" />
      </clipPath>
      <clipPath clipPathUnits="userSpaceOnUse" id="clipPath11">
        <path d="M9 0 L9 17 L73 17 L73 0 Z" />
      </clipPath>
      <clipPath clipPathUnits="userSpaceOnUse" id="clipPath12">
        <path d="M0 0 L0 17 L8 17 L8 0 Z" />
      </clipPath>
    </defs>
    <g style="fill:white; stroke:white;">
      <rect x="0" y="0" width="942" style="clip-path:url(#clipPath1); stroke:none;" height="313" />
      <rect x="0" y="0" width="941" style="clip-path:url(#clipPath1); fill:none; stroke:blue;" height="312" />
      <rect x="240" y="140" width="111" style="clip-path:url(#clipPath2); stroke:none;" height="60" />
      <rect x="240" y="140" width="110" style="clip-path:url(#clipPath2); fill:none; stroke:black;" height="59" />
      <text x="0" y="14" transform="translate(241,141)" style="font-size:14; clip-path:url(#clipPath3); fill:black; stroke:none;" xml:space="preserve">«component»</text>
      <text x="9" y="14" transform="translate(246,158)" style="font-size:14; clip-path:url(#clipPath4); fill:black; stroke:none;" xml:space="preserve">Controller</text>
      <text x="16" y="22" transform="translate(334,141)" style="font-size:14; clip-path:url(#clipPath5); fill:black; stroke:none;" xml:space="preserve"></text>
      <image x="0" y="9" transform="translate(334,141)" width="16" xlink:href="images/pngImage1.png" style="font-size:14; clip-path:url(#clipPath5); fill:black; stroke:black;" height="16" />
      <rect x="380" y="40" width="111" style="clip-path:url(#clipPath6); stroke:none;" height="60" />
      <rect x="380" y="40" width="110" style="clip-path:url(#clipPath6); fill:none; stroke:black;" height="59" />
      <text x="0" y="14" transform="translate(381,41)" style="font-size:14; clip-path:url(#clipPath3); fill:black; stroke:none;" xml:space="preserve">«component»</text>
      <text x="30" y="14" transform="translate(386,58)" style="font-size:14; clip-path:url(#clipPath7); fill:black; stroke:none;" xml:space="preserve">GUI</text>
      <text x="16" y="22" transform="translate(474,41)" style="font-size:14; clip-path:url(#clipPath5); fill:black; stroke:none;" xml:space="preserve"></text>
      <image x="0" y="9" transform="translate(474,41)" width="16" xlink:href="images/pngImage1.png" style="font-size:14; clip-path:url(#clipPath5); fill:black; stroke:black;" height="16" />
      <rect x="380" y="240" width="111" style="clip-path:url(#clipPath8); stroke:none;" height="60" />
      <rect x="380" y="240" width="110" style="clip-path:url(#clipPath8); fill:none; stroke:black;" height="59" />
      <text x="0" y="14" transform="translate(381,241)" style="font-size:14; clip-path:url(#clipPath3); fill:black; stroke:none;" xml:space="preserve">«component»</text>
      <text x="24" y="14" transform="translate(386,258)" style="font-size:14; clip-path:url(#clipPath9); fill:black; stroke:none;" xml:space="preserve">Data</text>
      <text x="16" y="22" transform="translate(474,241)" style="font-size:14; clip-path:url(#clipPath5); fill:black; stroke:none;" xml:space="preserve"></text>
      <image x="0" y="9" transform="translate(474,241)" width="16" xlink:href="images/pngImage1.png" style="font-size:14; clip-path:url(#clipPath5); fill:black; stroke:black;" height="16" />
      <rect x="640" y="240" width="111" style="clip-path:url(#clipPath10); stroke:none;" height="60" />
      <rect x="640" y="240" width="110" style="clip-path:url(#clipPath10); fill:none; stroke:black;" height="59" />
      <text x="0" y="14" transform="translate(641,241)" style="font-size:14; clip-path:url(#clipPath3); fill:black; stroke:none;" xml:space="preserve">«component»</text>
      <text x="9" y="14" transform="translate(646,258)" style="font-size:14; clip-path:url(#clipPath11); fill:black; stroke:none;" xml:space="preserve">Simulator</text>
      <text x="16" y="22" transform="translate(734,241)" style="font-size:14; clip-path:url(#clipPath5); fill:black; stroke:none;" xml:space="preserve"></text>
      <image x="0" y="9" transform="translate(734,241)" width="16" xlink:href="images/pngImage1.png" style="font-size:14; clip-path:url(#clipPath5); fill:black; stroke:black;" height="16" />
      <path d="M640 266 L491 266" style="fill:none; clip-path:url(#clipPath1); stroke:blue;" />
      <text x="0" y="14" transform="translate(503,244)" style="font-size:14; clip-path:url(#clipPath12); fill:black; stroke:none;" xml:space="preserve">1</text>
      <text x="0" y="14" transform="translate(620,244)" style="font-size:14; clip-path:url(#clipPath12); fill:black; stroke:none;" xml:space="preserve">1</text>
      <path d="M640 266 L491 266" style="fill:none; clip-path:url(#clipPath1); stroke:blue;" />
      <text x="0" y="14" transform="translate(503,244)" style="font-size:14; clip-path:url(#clipPath12); fill:black; stroke:none;" xml:space="preserve">1</text>
      <text x="0" y="14" transform="translate(620,244)" style="font-size:14; clip-path:url(#clipPath12); fill:black; stroke:none;" xml:space="preserve">1</text>
      <path d="M393 100 L336 140" style="fill:none; clip-path:url(#clipPath1); stroke:blue;" />
      <text x="0" y="14" transform="translate(338,110)" style="font-size:14; clip-path:url(#clipPath12); fill:black; stroke:none;" xml:space="preserve">1</text>
      <text x="0" y="14" transform="translate(367,89)" style="font-size:14; clip-path:url(#clipPath12); fill:black; stroke:none;" xml:space="preserve">1</text>
      <path d="M393 100 L336 140" style="fill:none; clip-path:url(#clipPath1); stroke:blue;" />
      <text x="0" y="14" transform="translate(338,110)" style="font-size:14; clip-path:url(#clipPath12); fill:black; stroke:none;" xml:space="preserve">1</text>
      <text x="0" y="14" transform="translate(367,89)" style="font-size:14; clip-path:url(#clipPath12); fill:black; stroke:none;" xml:space="preserve">1</text>
      <path d="M336 200 L393 240" style="fill:none; clip-path:url(#clipPath1); stroke:blue;" />
      <text x="0" y="14" transform="translate(383,210)" style="font-size:14; clip-path:url(#clipPath12); fill:black; stroke:none;" xml:space="preserve">1</text>
      <text x="0" y="14" transform="translate(354,190)" style="font-size:14; clip-path:url(#clipPath12); fill:black; stroke:none;" xml:space="preserve">1</text>
      <path d="M336 200 L393 240" style="fill:none; clip-path:url(#clipPath1); stroke:blue;" />
      <text x="0" y="14" transform="translate(383,210)" style="font-size:14; clip-path:url(#clipPath12); fill:black; stroke:none;" xml:space="preserve">1</text>
      <text x="0" y="14" transform="translate(354,190)" style="font-size:14; clip-path:url(#clipPath12); fill:black; stroke:none;" xml:space="preserve">1</text>
      <path d="M449 100 L449 240" style="fill:none; clip-path:url(#clipPath1); stroke:blue;" />
      <text x="0" y="14" transform="translate(454,211)" style="font-size:14; clip-path:url(#clipPath12); fill:black; stroke:none;" xml:space="preserve">1</text>
      <text x="0" y="14" transform="translate(454,111)" style="font-size:14; clip-path:url(#clipPath12); fill:black; stroke:none;" xml:space="preserve">1</text>
      <path d="M449 100 L449 240" style="fill:none; clip-path:url(#clipPath1); stroke:blue;" />
      <text x="0" y="14" transform="translate(454,211)" style="font-size:14; clip-path:url(#clipPath12); fill:black; stroke:none;" xml:space="preserve">1</text>
      <text x="0" y="14" transform="translate(454,111)" style="font-size:14; clip-path:url(#clipPath12); fill:black; stroke:none;" xml:space="preserve">1</text>
    </g>
  </g>
</svg>
